<svg width="17" height="16" viewBox="0 0 17 16" fill="none" xmlns="http://www.w3.org/2000/svg">
<g id="Communication / Paper_Plane">
<path id="Vector" d="M7.37054 9.12782L10.6013 5.89705M13.9062 3.92537L11.1791 12.7884C10.9347 13.583 10.8125 13.9802 10.6017 14.1119C10.4188 14.2262 10.1922 14.2449 9.99309 14.1623C9.76348 14.067 9.57736 13.6953 9.20559 12.9518L7.47829 9.49715C7.41929 9.37916 7.38977 9.32017 7.35036 9.26904C7.31539 9.22368 7.27488 9.18297 7.22952 9.148C7.17839 9.1086 7.11925 9.0791 7.00125 9.02011L3.54665 7.2928C2.80311 6.92104 2.43131 6.73522 2.33604 6.50561C2.25341 6.30648 2.27225 6.07962 2.38649 5.89679C2.51822 5.68596 2.91552 5.56377 3.71006 5.3193L12.5731 2.5922C13.1978 2.4 13.51 2.30389 13.721 2.38135C13.9047 2.44882 14.0497 2.59365 14.1172 2.77742C14.1946 2.98841 14.0984 3.30073 13.9062 3.92537Z" stroke="#FAF9F7" stroke-width="2" stroke-linecap="round" stroke-linejoin="round"/>
</g>
</svg>
